# xmcd
#
# Track frame offsets:
#	150
#	19210
#	40332
#	52145
#	66430
#	79777
#	94802
#	112542
#	128537
#	147872
#
# Disc length: 2214 seconds
#
# Revision: 0
# Processed by: cddbd v1.5.2PL0 Copyright (c) Steve Scherf et al.
# Submitted via: audiograbber 1.83.01
#
DISCID=8208a40a
DTITLE=Hot Tuna - Hoppkory
DYEAR=1976
DGENRE=Blues
TTITLE0=Santa Claus Retreat
TTITLE1=Watch The North Wind Rise
TTITLE2=It's so Easy
TTITLE3=Bowlegged Woman, Knock Kneed Man
TTITLE4=Drivin' Around
TTITLE5=I Wish You Would
TTITLE6=I Can't be Satisfied
TTITLE7=Talking 'bout You
TTITLE8=Extrication Love Song
TTITLE9=Song From The Stainless Cymbal
EXTD=
EXTT0=
EXTT1=
EXTT2=
EXTT3=
EXTT4=
EXTT5=
EXTT6=
EXTT7=
EXTT8=
EXTT9=
PLAYORDER=
